<svg width="20" height="20" viewBox="0 0 20 20" fill="none" xmlns="http://www.w3.org/2000/svg">
<path d="M14.1694 16.665C13.9781 17.6068 13.4672 18.4534 12.7231 19.0615C11.979 19.6698 11.0476 20.002 10.0864 20.002C9.1253 20.002 8.19388 19.6698 7.44971 19.0615C6.70563 18.4534 6.19474 17.6068 6.00342 16.665H14.1694ZM9.81592 -0.00195312C11.3313 -0.00170549 12.8047 0.495173 14.0112 1.41211C15.2178 2.32918 16.0916 3.61597 16.4976 5.07617L18.8735 11.6475C19.0102 12.025 19.0544 12.4301 19.0015 12.8281C18.9485 13.2259 18.8003 13.605 18.5698 13.9336C18.3392 14.2623 18.0325 14.5306 17.6763 14.7158C17.32 14.901 16.9245 14.9981 16.523 14.998H3.47608C3.08491 14.9979 2.69927 14.9058 2.3501 14.7295C2.00083 14.5531 1.69766 14.2973 1.46533 13.9824C1.23306 13.6676 1.07776 13.3027 1.01221 12.917C0.946677 12.5313 0.97314 12.1356 1.08838 11.7617L3.04639 5.42773C3.38867 3.88769 4.24643 2.5106 5.47705 1.52344C6.70772 0.536309 8.23827 -0.00197778 9.81592 -0.00195312Z" fill="url(#paint0_linear_612_885)"/>
<defs>
<linearGradient id="paint0_linear_612_885" x1="10.0001" y1="11.667" x2="10.0001" y2="20.002" gradientUnits="userSpaceOnUse">
<stop stop-color="#FF8F5A"/>
<stop offset="1" stop-color="#FF632F"/>
</linearGradient>
</defs>
</svg>
